<svg width="36" height="36" viewBox="0 0 36 36" fill="none" xmlns="http://www.w3.org/2000/svg">
    <path d="M18 34.125c-8.895 0-16.125-7.23-16.125-16.125S9.105 1.875 18 1.875 34.125 9.105 34.125 18 26.895 34.125 18 34.125zm0-30C10.35 4.125 4.125 10.35 4.125 18S10.35 31.875 18 31.875 31.875 25.65 31.875 18 25.65 4.125 18 4.125z" fill="#9C9C9C"/>
    <path d="M18 20.625c-.615 0-1.125-.51-1.125-1.125V12c0-.615.51-1.125 1.125-1.125s1.125.51 1.125 1.125v7.5c0 .615-.51 1.125-1.125 1.125zM18 25.5c-.195 0-.39-.045-.57-.12a1.732 1.732 0 0 1-.495-.315c-.135-.15-.24-.3-.315-.495a1.493 1.493 0 0 1-.12-.57c0-.195.045-.39.12-.57.075-.18.18-.345.315-.495.15-.135.315-.24.495-.315a1.5 1.5 0 0 1 1.14 0c.18.075.345.18.495.315.135.15.24.315.315.495.075.18.12.375.12.57 0 .195-.045.39-.12.57-.075.195-.18.345-.315.495-.15.135-.315.24-.495.315-.18.075-.375.12-.57.12z" fill="#9C9C9C"/>
</svg>
